<svg width="25" height="25" viewBox="0 0 25 25" fill="none" xmlns="http://www.w3.org/2000/svg">
<g clip-path="url(#clip0_40_336)">
<path d="M8.60572 3.92055C6.9039 3.9198 5.32856 4.46307 4.18656 5.53196C3.04486 6.59978 2.35588 8.18922 2.35578 10.1703C2.35593 12.2487 3.81809 14.1812 5.79822 16.078C7.77874 17.9756 10.3265 19.8479 12.6584 21.7915C12.7959 21.9016 13.0101 21.9006 13.147 21.7909C15.4781 19.8488 18.0209 17.9703 20.0068 16.0786C21.9944 14.1868 23.4737 12.2709 23.4743 10.1704C23.4745 8.16766 22.7613 6.59483 21.6187 5.53147C20.4761 4.4681 18.9242 3.92074 17.2241 3.91988C15.4751 3.9202 13.9974 5.02324 12.9028 6.14144C11.8127 5.02978 10.3512 3.92043 8.60572 3.92055Z" fill="#93AB9E"/>
</g>
<defs>
<clipPath id="clip0_40_336">
<rect width="25" height="25" fill="white"/>
</clipPath>
</defs>
</svg>
